{
	"asset":{
		"generator":"Khronos glTF Blender I/O v3.6.27",
		"version":"2.0"
	},
	"extensionsUsed":[
		"KHR_materials_specular",
		"KHR_materials_ior"
	],
	"scene":0,
	"scenes":[
		{
			"name":"Scene",
			"nodes":[
				0
			]
		}
	],
	"nodes":[
		{
			"mesh":0,
			"name":"MethANE.mol",
			"rotation":[
				0.7071068286895752,
				0,
				0,
				0.7071068286895752
			]
		}
	],
	"materials":[
		{
			"doubleSided":true,
			"extensions":{
				"KHR_materials_specular":{
					"specularColorFactor":[
						0.020080160244135427,
						0.020080160244135427,
						0.020080160244135427
					]
				},
				"KHR_materials_ior":{
					"ior":0.0010000000474974513
				}
			},
			"name":"k000000",
			"pbrMetallicRoughness":{
				"baseColorFactor":[
					0,
					0,
					0,
					1
				],
				"metallicFactor":0,
				"roughnessFactor":0.5962674021720886
			}
		},
		{
			"doubleSided":true,
			"extensions":{
				"KHR_materials_specular":{
					"specularColorFactor":[
						0.020080160244135427,
						0.020080160244135427,
						0.020080160244135427
					]
				},
				"KHR_materials_ior":{
					"ior":0.0010000000474974513
				}
			},
			"name":"kffffff",
			"pbrMetallicRoughness":{
				"metallicFactor":0,
				"roughnessFactor":0.5962674021720886
			}
		},
		{
			"doubleSided":true,
			"extensions":{
				"KHR_materials_specular":{
					"specularColorFactor":[
						0.020080160244135427,
						0.020080160244135427,
						0.020080160244135427
					]
				},
				"KHR_materials_ior":{
					"ior":0.0010000000474974513
				}
			},
			"name":"k808080",
			"pbrMetallicRoughness":{
				"baseColorFactor":[
					0.5040000081062317,
					0.5040000081062317,
					0.5040000081062317,
					1
				],
				"metallicFactor":0,
				"roughnessFactor":0.5962674021720886
			}
		}
	],
	"meshes":[
		{
			"name":"MethANE.mol",
			"primitives":[
				{
					"attributes":{
						"POSITION":0,
						"NORMAL":1
					},
					"indices":2,
					"material":0
				},
				{
					"attributes":{
						"POSITION":3,
						"NORMAL":4
					},
					"indices":5,
					"material":1
				},
				{
					"attributes":{
						"POSITION":6,
						"NORMAL":7
					},
					"indices":8,
					"material":2
				}
			]
		}
	],
	"accessors":[
		{
			"bufferView":0,
			"componentType":5126,
			"count":642,
			"max":[
				0.42500001192092896,
				0.42500001192092896,
				0.42500001192092896
			],
			"min":[
				-0.42500001192092896,
				-0.42500001192092896,
				-0.42500001192092896
			],
			"type":"VEC3"
		},
		{
			"bufferView":1,
			"componentType":5126,
			"count":642,
			"type":"VEC3"
		},
		{
			"bufferView":2,
			"componentType":5123,
			"count":3840,
			"type":"SCALAR"
		},
		{
			"bufferView":3,
			"componentType":5126,
			"count":2568,
			"max":[
				0.958299994468689,
				0.9442000389099121,
				1.0884000062942505
			],
			"min":[
				-1.0532000064849854,
				-1.1870999336242676,
				-1.0745999813079834
			],
			"type":"VEC3"
		},
		{
			"bufferView":4,
			"componentType":5126,
			"count":2568,
			"type":"VEC3"
		},
		{
			"bufferView":5,
			"componentType":5123,
			"count":15360,
			"type":"SCALAR"
		},
		{
			"bufferView":6,
			"componentType":5126,
			"count":5424,
			"max":[
				0.7842999696731567,
				0.7702000141143799,
				0.9143999814987183
			],
			"min":[
				-0.8791999816894531,
				-1.0130999088287354,
				-0.900600016117096
			],
			"type":"VEC3"
		},
		{
			"bufferView":7,
			"componentType":5126,
			"count":5424,
			"type":"VEC3"
		},
		{
			"bufferView":8,
			"componentType":5123,
			"count":31584,
			"type":"SCALAR"
		}
	],
	"bufferViews":[
		{
			"buffer":0,
			"byteLength":7704,
			"byteOffset":0,
			"target":34962
		},
		{
			"buffer":0,
			"byteLength":7704,
			"byteOffset":7704,
			"target":34962
		},
		{
			"buffer":0,
			"byteLength":7680,
			"byteOffset":15408,
			"target":34963
		},
		{
			"buffer":0,
			"byteLength":30816,
			"byteOffset":23088,
			"target":34962
		},
		{
			"buffer":0,
			"byteLength":30816,
			"byteOffset":53904,
			"target":34962
		},
		{
			"buffer":0,
			"byteLength":30720,
			"byteOffset":84720,
			"target":34963
		},
		{
			"buffer":0,
			"byteLength":65088,
			"byteOffset":115440,
			"target":34962
		},
		{
			"buffer":0,
			"byteLength":65088,
			"byteOffset":180528,
			"target":34962
		},
		{
			"buffer":0,
			"byteLength":63168,
			"byteOffset":245616,
			"target":34963
		}
	],
	"buffers":[
		{
			"byteLength":308784,
			"uri":"data:application/octet-stream;base64,"
		}
	]
}
